<svg version="1.1" xmlns="http://www.w3.org/2000/svg" xmlns:xlink="http://www.w3.org/1999/xlink" width="80px" height="80px" viewBox="0,0,256,256"><g fill="#e1ad00" fill-rule="nonzero" stroke="none" stroke-width="1" stroke-linecap="butt" stroke-linejoin="miter" stroke-miterlimit="10" stroke-dasharray="" stroke-dashoffset="0" font-family="none" font-weight="none" font-size="none" text-anchor="none" style="mix-blend-mode: normal"><g transform="scale(10.66667,10.66667)"><path d="M12,2l-1.97852,1.91211l-2.72266,-0.38477l-0.47656,2.71094l-2.42969,1.28906l1.20703,2.47266l-1.20703,2.47266l2.42969,1.28906l0.47656,2.71094l2.72461,-0.38477l1.97656,1.91211l1.97852,-1.91211l2.72461,0.38477l0.47461,-2.71094l2.43164,-1.28906l-1.20898,-2.47266l1.20703,-2.47266l-2.42969,-1.28906l-0.47656,-2.71094l-2.72461,0.38477zM4.98242,15.01758l-3.98242,3.98242l3,1l1,3l4.58984,-4.58984l-0.24609,-0.23437l-1.22656,0.17188c-0.12,0.017 -0.23747,0.02539 -0.35547,0.02539c-1.236,0 -2.28895,-0.88456 -2.50195,-2.10156l-0.21289,-1.21875zM19.01758,15.01758l-0.06445,0.03516l-0.21289,1.21875c-0.214,1.218 -1.26595,2.10156 -2.50195,2.10156c-0.118,0 -0.23547,-0.00839 -0.35547,-0.02539l-1.22656,-0.17187l-0.24609,0.23633l4.58984,4.58789l1,-3l3,-1z"></path></g></g></svg>