<svg version="1.1" xmlns="http://www.w3.org/2000/svg" xmlns:xlink="http://www.w3.org/1999/xlink" width="30px" height="30px" viewBox="0,0,256,256"><g fill="#e1ad00" fill-rule="nonzero" stroke="none" stroke-width="1" stroke-linecap="butt" stroke-linejoin="miter" stroke-miterlimit="10" stroke-dasharray="" stroke-dashoffset="0" font-family="none" font-weight="none" font-size="none" text-anchor="none" style="mix-blend-mode: normal"><g transform="scale(10.66667,10.66667)"><path d="M11.98438,1.98633c-0.55152,0.00862 -0.99193,0.46214 -0.98437,1.01367v1.05859c-4.49241,0.49984 -8,4.31706 -8,8.94141c0,4.963 4.038,9 9,9c4.962,0 9,-4.037 9,-9c0,-4.62435 -3.50759,-8.44157 -8,-8.94141v-1.05859c0.0037,-0.2703 -0.10218,-0.53059 -0.29351,-0.72155c-0.19133,-0.19097 -0.45182,-0.29634 -0.72212,-0.29212zM12,7c0.552,0 1,0.448 1,1v4.58594l2.44141,2.44141c0.39,0.39 0.39,1.02406 0,1.41406c-0.39,0.391 -1.02306,0.391 -1.41406,0l-2.73437,-2.73437c-0.188,-0.188 -0.29297,-0.44203 -0.29297,-0.70703v-5c0,-0.552 0.448,-1 1,-1z"></path></g></g></svg>