<svg version="1.1" xmlns="http://www.w3.org/2000/svg" xmlns:xlink="http://www.w3.org/1999/xlink" width="80px" height="80px" viewBox="0,0,256,256"><g fill="#e1ad00" fill-rule="nonzero" stroke="none" stroke-width="1" stroke-linecap="butt" stroke-linejoin="miter" stroke-miterlimit="10" stroke-dasharray="" stroke-dashoffset="0" font-family="none" font-weight="none" font-size="none" text-anchor="none" style="mix-blend-mode: normal"><g transform="scale(5.12,5.12)"><path d="M14,9c-1.10547,0 -2,0.89453 -2,2v28c0,1.10547 0.89453,2 2,2h2c1.10547,0 2,-0.89453 2,-2v-11h14v11c0,1.10547 0.89453,2 2,2h2c1.10547,0 2,-0.89453 2,-2v-28c0,-1.10547 -0.89453,-2 -2,-2h-2c-1.10547,0 -2,0.89453 -2,2v11h-14v-11c0,-1.10547 -0.89453,-2 -2,-2zM7,13c-1.10547,0 -2,0.89453 -2,2v20c0,1.10547 0.89453,2 2,2h3v-24zM40,13v24h3c1.10547,0 2,-0.89453 2,-2v-20c0,-1.10547 -0.89453,-2 -2,-2zM1,22c-0.55078,0 -1,0.44922 -1,1v4c0,0.55078 0.44922,1 1,1h2v-6zM47,22v6h2c0.55078,0 1,-0.44922 1,-1v-4c0,-0.55078 -0.44922,-1 -1,-1z"></path></g></g></svg>