<svg version="1.1" xmlns="http://www.w3.org/2000/svg" xmlns:xlink="http://www.w3.org/1999/xlink" width="30px" height="30px" viewBox="0,0,256,256"><g fill="#e1ad00" fill-rule="nonzero" stroke="none" stroke-width="1" stroke-linecap="butt" stroke-linejoin="miter" stroke-miterlimit="10" stroke-dasharray="" stroke-dashoffset="0" font-family="none" font-weight="none" font-size="none" text-anchor="none" style="mix-blend-mode: normal"><g transform="scale(10.66667,10.66667)"><path d="M12,14l-9,-5v10h18v-10z" opacity="0.3"></path><path d="M21.008,6.247l-9.008,-5.255l-9.008,5.255c-0.612,0.357 -0.992,1.019 -0.992,1.728v10.025c0,1.103 0.897,2 2,2h16c1.103,0 2,-0.897 2,-2v-10.025c0,-0.709 -0.38,-1.371 -0.992,-1.728zM19.892,7.912l-7.892,4.91l-7.892,-4.911l7.892,-4.603zM4,18v-7.8l8,4.978l8,-4.978l0.001,7.8z"></path></g></g></svg>