<svg version="1.1" xmlns="http://www.w3.org/2000/svg" xmlns:xlink="http://www.w3.org/1999/xlink" width="42px" height="42px" viewBox="0,0,256,256"><g fill="#e1ad00" fill-rule="evenodd" stroke="none" stroke-width="1" stroke-linecap="butt" stroke-linejoin="miter" stroke-miterlimit="10" stroke-dasharray="" stroke-dashoffset="0" font-family="none" font-weight="none" font-size="none" text-anchor="none" style="mix-blend-mode: normal"><g transform="scale(10.66667,10.66667)"><path d="M15.73633,4.75c-2.13633,0 -3.86816,1.73184 -3.86816,3.86816c0,2.13633 1.73184,3.86816 3.86816,3.86816c2.13633,0 3.86816,-1.73184 3.86816,-3.86816c0,-2.13633 -1.73184,-3.86816 -3.86816,-3.86816zM7.22266,6.75c-1.85326,0.02485 -3.34258,1.53427 -3.34258,3.3877c0,1.85343 1.48932,3.36285 3.34258,3.3877c1.85326,-0.02485 3.34258,-1.53427 3.34258,-3.3877c0,-1.85343 -1.48932,-3.36285 -3.34258,-3.3877zM15.73633,13.05664c-2.241,0 -4.22308,0.5682 -5.45508,1.4082c-0.997,0.68 -1.53125,1.55394 -1.53125,2.46094v0.95117c0,0.365 0.14534,0.7127 0.40234,0.9707c0.258,0.257 0.6057,0.40234 0.9707,0.40234h11.22656c0.364,0 0.7127,-0.14534 0.9707,-0.40234c0.257,-0.258 0.40234,-0.6057 0.40234,-0.9707v-0.95117c0,-0.907 -0.53425,-1.78094 -1.53125,-2.46094c-1.232,-0.84 -3.21408,-1.4082 -5.45508,-1.4082zM7.22266,13.7793c-1.923,0 -3.62269,0.48994 -4.67969,1.21094c-0.881,0.6 -1.3457,1.37674 -1.3457,2.17774v0.80469c0,0.339 0.13305,0.6643 0.37305,0.9043c0.24,0.239 0.5653,0.37305 0.9043,0.37305h5.71289c-0.283,-0.399 -0.4375,-0.87705 -0.4375,-1.37305v-0.95117c0,-1.056 0.50344,-2.10412 1.52344,-2.95312c-0.637,-0.124 -1.32778,-0.19336 -2.05078,-0.19336z"></path></g></g></svg>