<svg version="1.1" xmlns="http://www.w3.org/2000/svg" xmlns:xlink="http://www.w3.org/1999/xlink" width="30px" height="30px" viewBox="0,0,256,256"><g fill="#e1ad00" fill-rule="nonzero" stroke="none" stroke-width="1" stroke-linecap="butt" stroke-linejoin="miter" stroke-miterlimit="10" stroke-dasharray="" stroke-dashoffset="0" font-family="none" font-weight="none" font-size="none" text-anchor="none" style="mix-blend-mode: normal"><g transform="scale(5.12,5.12)"><path d="M16,1c-2.19733,0 -4,1.80267 -4,4v40c0,2.19733 1.80267,4 4,4h18c2.19733,0 4,-1.80267 4,-4v-40c0,-2.19733 -1.80267,-4 -4,-4zM16,3h18c1.11667,0 2,0.88333 2,2v40c0,1.11667 -0.88333,2 -2,2h-18c-1.11667,0 -2,-0.88333 -2,-2v-40c0,-1.11667 0.88333,-2 2,-2zM22.5,5c-0.828,0 -1.5,0.672 -1.5,1.5c0,0.828 0.672,1.5 1.5,1.5h5c0.828,0 1.5,-0.672 1.5,-1.5c0,-0.828 -0.672,-1.5 -1.5,-1.5z"></path></g></g></svg>