<svg version="1.1" xmlns="http://www.w3.org/2000/svg" xmlns:xlink="http://www.w3.org/1999/xlink" width="30px" height="30px" viewBox="0,0,256,256"><g fill="#e1ad00" fill-rule="nonzero" stroke="none" stroke-width="1" stroke-linecap="butt" stroke-linejoin="miter" stroke-miterlimit="10" stroke-dasharray="" stroke-dashoffset="0" font-family="none" font-weight="none" font-size="none" text-anchor="none" style="mix-blend-mode: normal"><g transform="scale(8.53333,8.53333)"><path d="M15,3c-3.866,0 -7,3.134 -7,7c0,3.5253 2.60936,6.43323 6,6.91992v9.08008c-0.0051,0.36064 0.18438,0.69608 0.49587,0.87789c0.3115,0.18181 0.69676,0.18181 1.00825,0c0.3115,-0.18181 0.50097,-0.51725 0.49587,-0.87789v-9.08008c3.39064,-0.4867 6,-3.39463 6,-6.91992c0,-3.866 -3.134,-7 -7,-7zM15,5c1.243,0 2.25,0.672 2.25,1.5c0,0.828 -1.007,1.5 -2.25,1.5c-1.243,0 -2.25,-0.672 -2.25,-1.5c0,-0.828 1.007,-1.5 2.25,-1.5z"></path></g></g></svg>